STARTFONT 2.1
FONT -Adobe-Times-Medium-I-Normal--12-120-75-75-P-63-ISO8859-2
SIZE 12 75 75
FONTBOUNDINGBOX 16 15 -3 -3
COMMENT $XConsortium: timI12.bdf,v 1.14 95/01/26 18:06:48 gildea Exp $
COMMENT 
COMMENT +
COMMENT  Copyright 1984-1989, 1994 Adobe Systems Incorporated.
COMMENT  Copyright 1988, 1994 Digital Equipment Corporation.
COMMENT
COMMENT  Adobe is a trademark of Adobe Systems Incorporated which may be
COMMENT  registered in certain jurisdictions.
COMMENT  Permission to use these trademarks is hereby granted only in
COMMENT  association with the images described in this file.
COMMENT
COMMENT  Permission to use, copy, modify, distribute and sell this software
COMMENT  and its documentation for any purpose and without fee is hereby
COMMENT  granted, provided that the above copyright notices appear in all
COMMENT  copies and that both those copyright notices and this permission
COMMENT  notice appear in supporting documentation, and that the names of
COMMENT  Adobe Systems and Digital Equipment Corporation not be used in
COMMENT  advertising or publicity pertaining to distribution of the software
COMMENT  without specific, written prior permission.  Adobe Systems and
COMMENT  Digital Equipment Corporation make no representations about the
COMMENT  suitability of this software for any purpose.  It is provided "as
COMMENT  is" without express or implied warranty.
COMMENT -
COMMENT  
COMMENT  Translation to ISO8859-2 by Cub Soft;  Petr.Kolar@vslib.cz
COMMENT  
STARTPROPERTIES 28
FOUNDRY "Adobe"
FAMILY_NAME "Times"
WEIGHT_NAME "Medium"
SLANT "I"
SETWIDTH_NAME "Normal"
ADD_STYLE_NAME ""
PIXEL_SIZE 12
POINT_SIZE 120
RESOLUTION_X 75
RESOLUTION_Y 75
SPACING "P"
AVERAGE_WIDTH 63
CHARSET_REGISTRY "ISO8859"
CHARSET_ENCODING "2"
CAP_HEIGHT 9
X_HEIGHT 6
FONT_ASCENT 11
FONT_DESCENT 3
FACE_NAME "Times Italic"

STARTCHAR space
ENCODING 32
SWIDTH 250 0
DWIDTH 3 0
BBX 1 1 0 0
BITMAP
00
ENDCHAR
STARTCHAR exclam
ENCODING 33
SWIDTH 333 0
DWIDTH 4 0
BBX 3 9 1 0
BITMAP
20
20
40
40
40
80
80
00
80
ENDCHAR
STARTCHAR quotedbl
ENCODING 34
SWIDTH 420 0
DWIDTH 5 0
BBX 4 2 1 7
BITMAP
50
a0
ENDCHAR
STARTCHAR numbersign
ENCODING 35
SWIDTH 500 0
DWIDTH 6 0
BBX 7 9 -1 0
BITMAP
14
14
14
7e
28
28
fc
50
50
ENDCHAR
STARTCHAR dollar
ENCODING 36
SWIDTH 500 0
DWIDTH 6 0
BBX 6 11 0 -1
BITMAP
08
38
54
50
50
30
28
a8
a8
70
40
ENDCHAR
STARTCHAR percent
ENCODING 37
SWIDTH 833 0
DWIDTH 10 0
BBX 10 9 0 0
BITMAP
3100
6f00
ca00
9400
6580
0b40
1640
1480
2300
ENDCHAR
STARTCHAR ampersand
ENCODING 38
SWIDTH 778 0
DWIDTH 9 0
BBX 8 9 0 0
BITMAP
0c
14
14
18
33
52
8c
89
76
ENDCHAR
STARTCHAR apostrophe
ENCODING 39
SWIDTH 333 0
DWIDTH 4 0
BBX 2 3 2 6
BITMAP
40
40
80
ENDCHAR
STARTCHAR parenleft
ENCODING 40
SWIDTH 333 0
DWIDTH 4 0
BBX 4 12 -1 -3
BITMAP
10
20
40
40
80
80
80
80
80
40
40
20
ENDCHAR
STARTCHAR parenright
ENCODING 41
SWIDTH 333 0
DWIDTH 4 0
BBX 4 12 0 -3
BITMAP
40
20
20
10
10
10
10
10
20
20
40
80
ENDCHAR
STARTCHAR asterisk
ENCODING 42
SWIDTH 500 0
DWIDTH 6 0
BBX 5 5 1 4
BITMAP
20
a8
70
a8
20
ENDCHAR
STARTCHAR plus
ENCODING 43
SWIDTH 675 0
DWIDTH 8 0
BBX 5 5 1 1
BITMAP
20
20
f8
20
20
ENDCHAR
STARTCHAR comma
ENCODING 44
SWIDTH 250 0
DWIDTH 3 0
BBX 2 3 -1 -2
BITMAP
40
40
80
ENDCHAR
STARTCHAR minus
ENCODING 45
SWIDTH 675 0
DWIDTH 8 0
BBX 6 1 1 3
BITMAP
fc
ENDCHAR
STARTCHAR period
ENCODING 46
SWIDTH 250 0
DWIDTH 3 0
BBX 1 1 0 0
BITMAP
80
ENDCHAR
STARTCHAR slash
ENCODING 47
SWIDTH 278 0
DWIDTH 4 0
BBX 4 9 0 0
BITMAP
10
10
20
20
20
40
40
80
80
ENDCHAR
STARTCHAR zero
ENCODING 48
SWIDTH 500 0
DWIDTH 6 0
BBX 6 9 0 0
BITMAP
18
24
44
44
84
88
88
90
60
ENDCHAR
STARTCHAR one
ENCODING 49
SWIDTH 500 0
DWIDTH 6 0
BBX 4 9 0 0
BITMAP
30
10
10
20
20
20
40
40
e0
ENDCHAR
STARTCHAR two
ENCODING 50
SWIDTH 500 0
DWIDTH 6 0
BBX 6 9 0 0
BITMAP
38
44
04
08
10
20
40
84
f8
ENDCHAR
STARTCHAR three
ENCODING 51
SWIDTH 500 0
DWIDTH 6 0
BBX 6 9 -1 0
BITMAP
18
24
04
08
30
08
08
90
60
ENDCHAR
STARTCHAR four
ENCODING 52
SWIDTH 500 0
DWIDTH 6 0
BBX 6 9 -1 0
BITMAP
04
0c
14
24
48
88
fc
10
10
ENDCHAR
STARTCHAR five
ENCODING 53
SWIDTH 500 0
DWIDTH 6 0
BBX 6 9 0 0
BITMAP
3c
20
40
70
08
08
08
90
e0
ENDCHAR
STARTCHAR six
ENCODING 54
SWIDTH 500 0
DWIDTH 6 0
BBX 6 9 0 0
BITMAP
0c
30
40
70
88
88
88
90
60
ENDCHAR
STARTCHAR seven
ENCODING 55
SWIDTH 500 0
DWIDTH 6 0
BBX 5 9 1 0
BITMAP
78
88
10
20
20
40
40
80
80
ENDCHAR
STARTCHAR eight
ENCODING 56
SWIDTH 500 0
DWIDTH 6 0
BBX 6 9 0 0
BITMAP
38
44
48
30
50
88
88
90
60
ENDCHAR
STARTCHAR nine
ENCODING 57
SWIDTH 500 0
DWIDTH 6 0
BBX 6 9 0 0
BITMAP
18
24
44
44
44
38
08
30
c0
ENDCHAR
STARTCHAR colon
ENCODING 58
SWIDTH 333 0
DWIDTH 4 0
BBX 2 6 1 0
BITMAP
40
00
00
00
00
80
ENDCHAR
STARTCHAR semicolon
ENCODING 59
SWIDTH 333 0
DWIDTH 4 0
BBX 3 8 0 -2
BITMAP
20
00
00
00
00
40
40
80
ENDCHAR
STARTCHAR less
ENCODING 60
SWIDTH 675 0
DWIDTH 8 0
BBX 6 7 0 0
BITMAP
04
18
60
80
60
18
04
ENDCHAR
STARTCHAR equal
ENCODING 61
SWIDTH 675 0
DWIDTH 8 0
BBX 6 3 0 2
BITMAP
fc
00
fc
ENDCHAR
STARTCHAR greater
ENCODING 62
SWIDTH 675 0
DWIDTH 8 0
BBX 6 7 1 0
BITMAP
80
60
18
04
18
60
80
ENDCHAR
STARTCHAR question
ENCODING 63
SWIDTH 500 0
DWIDTH 6 0
BBX 4 9 2 0
BITMAP
60
90
90
20
40
80
80
00
80
ENDCHAR
STARTCHAR at
ENCODING 64
SWIDTH 920 0
DWIDTH 12 0
BBX 10 10 1 -1
BITMAP
0f00
3080
4040
4d40
9240
a280
a480
9b00
4000
3c00
ENDCHAR
STARTCHAR A
ENCODING 65
SWIDTH 611 0
DWIDTH 8 0
BBX 8 9 -1 0
BITMAP
06
06
0a
12
12
3e
22
42
e7
ENDCHAR
STARTCHAR B
ENCODING 66
SWIDTH 611 0
DWIDTH 8 0
BBX 8 9 -1 0
BITMAP
3e
13
11
22
3c
22
42
46
fc
ENDCHAR
STARTCHAR C
ENCODING 67
SWIDTH 667 0
DWIDTH 7 0
BBX 8 9 0 0
BITMAP
1d
22
42
40
80
80
80
88
70
ENDCHAR
STARTCHAR D
ENCODING 68
SWIDTH 722 0
DWIDTH 9 0
BBX 9 9 0 0
BITMAP
3e00
1100
1080
2080
2080
2100
4100
4600
f800
ENDCHAR
STARTCHAR E
ENCODING 69
SWIDTH 611 0
DWIDTH 8 0
BBX 8 9 0 0
BITMAP
3f
11
10
22
3c
24
40
42
fc
ENDCHAR
STARTCHAR F
ENCODING 70
SWIDTH 611 0
DWIDTH 8 0
BBX 8 9 0 0
BITMAP
3f
11
10
22
3c
24
40
40
e0
ENDCHAR
STARTCHAR G
ENCODING 71
SWIDTH 722 0
DWIDTH 8 0
BBX 8 9 0 0
BITMAP
1d
22
42
40
80
8e
84
88
78
ENDCHAR
STARTCHAR H
ENCODING 72
SWIDTH 722 0
DWIDTH 9 0
BBX 10 9 -1 0
BITMAP
39c0
1080
1080
2100
3f00
2100
4200
4200
e700
ENDCHAR
STARTCHAR I
ENCODING 73
SWIDTH 333 0
DWIDTH 5 0
BBX 5 9 0 0
BITMAP
38
10
10
20
20
20
40
40
e0
ENDCHAR
STARTCHAR J
ENCODING 74
SWIDTH 444 0
DWIDTH 5 0
BBX 6 9 -1 0
BITMAP
1c
08
08
10
10
10
20
a0
c0
ENDCHAR
STARTCHAR K
ENCODING 75
SWIDTH 667 0
DWIDTH 8 0
BBX 9 9 -1 0
BITMAP
3b80
1100
1200
2400
3800
2800
4400
4200
e700
ENDCHAR
STARTCHAR L
ENCODING 76
SWIDTH 556 0
DWIDTH 7 0
BBX 7 9 0 0
BITMAP
38
10
10
20
20
20
40
42
fc
ENDCHAR
STARTCHAR M
ENCODING 77
SWIDTH 833 0
DWIDTH 11 0
BBX 12 9 -1 0
BITMAP
3870
1860
18c0
2940
2940
2a80
4a80
4c80
e9c0
ENDCHAR
STARTCHAR N
ENCODING 78
SWIDTH 667 0
DWIDTH 9 0
BBX 10 9 -1 0
BITMAP
31c0
1080
1080
2900
2900
2500
4600
4200
e200
ENDCHAR
STARTCHAR O
ENCODING 79
SWIDTH 722 0
DWIDTH 7 0
BBX 7 9 0 0
BITMAP
1c
22
42
42
82
84
84
88
70
ENDCHAR
STARTCHAR P
ENCODING 80
SWIDTH 611 0
DWIDTH 8 0
BBX 8 9 0 0
BITMAP
3e
11
11
22
3c
20
40
40
e0
ENDCHAR
STARTCHAR Q
ENCODING 81
SWIDTH 722 0
DWIDTH 7 0
BBX 7 11 0 -2
BITMAP
1c
22
42
42
82
84
84
88
70
42
fc
ENDCHAR
STARTCHAR R
ENCODING 82
SWIDTH 611 0
DWIDTH 8 0
BBX 8 9 -1 0
BITMAP
3e
11
11
22
3c
28
44
42
e3
ENDCHAR
STARTCHAR S
ENCODING 83
SWIDTH 500 0
DWIDTH 6 0
BBX 8 9 -1 0
BITMAP
1d
22
22
10
08
04
44
44
b8
ENDCHAR
STARTCHAR T
ENCODING 84
SWIDTH 556 0
DWIDTH 7 0
BBX 8 9 0 0
BITMAP
7f
89
08
10
10
10
20
20
70
ENDCHAR
STARTCHAR U
ENCODING 85
SWIDTH 722 0
DWIDTH 8 0
BBX 9 9 0 0
BITMAP
7380
2100
2100
4200
4200
4200
8400
8400
7800
ENDCHAR
STARTCHAR V
ENCODING 86
SWIDTH 611 0
DWIDTH 7 0
BBX 8 9 0 0
BITMAP
e7
42
44
44
48
48
50
50
60
ENDCHAR
STARTCHAR W
ENCODING 87
SWIDTH 833 0
DWIDTH 10 0
BBX 11 9 0 0
BITMAP
eee0
4440
4c80
4c80
5500
5500
6600
6600
4400
ENDCHAR
STARTCHAR X
ENCODING 88
SWIDTH 611 0
DWIDTH 8 0
BBX 9 9 -1 0
BITMAP
7380
2100
1200
0c00
0800
1400
2400
4200
e700
ENDCHAR
STARTCHAR Y
ENCODING 89
SWIDTH 556 0
DWIDTH 7 0
BBX 8 9 0 0
BITMAP
77
22
24
28
30
20
20
40
e0
ENDCHAR
STARTCHAR Z
ENCODING 90
SWIDTH 556 0
DWIDTH 7 0
BBX 8 9 0 0
BITMAP
3f
22
04
08
10
20
40
84
fc
ENDCHAR
STARTCHAR bracketleft
ENCODING 91
SWIDTH 389 0
DWIDTH 5 0
BBX 6 11 -1 -2
BITMAP
1c
10
10
20
20
20
40
40
40
80
e0
ENDCHAR
STARTCHAR backslash
ENCODING 92
SWIDTH 278 0
DWIDTH 3 0
BBX 3 9 0 0
BITMAP
80
80
80
40
40
40
20
20
20
ENDCHAR
STARTCHAR bracketright
ENCODING 93
SWIDTH 389 0
DWIDTH 5 0
BBX 6 11 -1 -2
BITMAP
1c
04
08
08
08
10
10
10
20
20
e0
ENDCHAR
STARTCHAR asciicircum
ENCODING 94
SWIDTH 422 0
DWIDTH 5 0
BBX 5 5 0 4
BITMAP
10
30
48
48
88
ENDCHAR
STARTCHAR underscore
ENCODING 95
SWIDTH 500 0
DWIDTH 6 0
BBX 7 1 -2 -3
BITMAP
fe
ENDCHAR
STARTCHAR grave
ENCODING 96
SWIDTH 333 0
DWIDTH 4 0
BBX 2 2 2 7
BITMAP
80
40
ENDCHAR
STARTCHAR a
ENCODING 97
SWIDTH 500 0
DWIDTH 6 0
BBX 6 6 0 0
BITMAP
34
48
88
90
94
68
ENDCHAR
STARTCHAR b
ENCODING 98
SWIDTH 500 0
DWIDTH 6 0
BBX 5 9 0 0
BITMAP
60
20
40
70
48
88
88
90
e0
ENDCHAR
STARTCHAR c
ENCODING 99
SWIDTH 444 0
DWIDTH 5 0
BBX 4 6 0 0
BITMAP
30
50
80
80
90
60
ENDCHAR
STARTCHAR d
ENCODING 100
SWIDTH 500 0
DWIDTH 6 0
BBX 6 9 0 0
BITMAP
0c
04
04
38
48
88
90
94
68
ENDCHAR
STARTCHAR e
ENCODING 101
SWIDTH 444 0
DWIDTH 6 0
BBX 5 6 0 0
BITMAP
30
48
90
e0
88
70
ENDCHAR
STARTCHAR f
ENCODING 102
SWIDTH 278 0
DWIDTH 4 0
BBX 7 12 -2 -3
BITMAP
06
0a
08
1c
08
10
10
10
10
20
a0
c0
ENDCHAR
STARTCHAR g
ENCODING 103
SWIDTH 500 0
DWIDTH 5 0
BBX 6 9 -1 -3
BITMAP
3c
48
48
30
20
70
88
88
70
ENDCHAR
STARTCHAR h
ENCODING 104
SWIDTH 500 0
DWIDTH 6 0
BBX 6 9 0 0
BITMAP
60
20
40
70
48
48
90
94
98
ENDCHAR
STARTCHAR i
ENCODING 105
SWIDTH 278 0
DWIDTH 4 0
BBX 4 9 0 0
BITMAP
20
00
00
60
20
40
40
90
60
ENDCHAR
STARTCHAR j
ENCODING 106
SWIDTH 278 0
DWIDTH 4 0
BBX 5 12 -2 -3
BITMAP
08
00
00
18
08
08
10
10
10
20
a0
c0
ENDCHAR
STARTCHAR k
ENCODING 107
SWIDTH 444 0
DWIDTH 6 0
BBX 6 9 0 0
BITMAP
30
10
20
2c
50
60
50
94
88
ENDCHAR
STARTCHAR l
ENCODING 108
SWIDTH 278 0
DWIDTH 3 0
BBX 3 9 0 0
BITMAP
60
20
20
40
40
40
80
a0
40
ENDCHAR
STARTCHAR m
ENCODING 109
SWIDTH 722 0
DWIDTH 9 0
BBX 9 6 0 0
BITMAP
b600
4900
4900
9200
9280
9300
ENDCHAR
STARTCHAR n
ENCODING 110
SWIDTH 500 0
DWIDTH 6 0
BBX 6 6 0 0
BITMAP
b0
48
48
90
94
98
ENDCHAR
STARTCHAR o
ENCODING 111
SWIDTH 500 0
DWIDTH 6 0
BBX 5 6 0 0
BITMAP
30
48
88
88
90
60
ENDCHAR
STARTCHAR p
ENCODING 112
SWIDTH 500 0
DWIDTH 6 0
BBX 7 9 -2 -3
BITMAP
3c
12
12
22
24
38
40
40
e0
ENDCHAR
STARTCHAR q
ENCODING 113
SWIDTH 500 0
DWIDTH 6 0
BBX 6 9 0 -3
BITMAP
34
48
88
88
90
70
10
20
70
ENDCHAR
STARTCHAR r
ENCODING 114
SWIDTH 389 0
DWIDTH 4 0
BBX 4 6 0 0
BITMAP
b0
40
40
80
80
80
ENDCHAR
STARTCHAR s
ENCODING 115
SWIDTH 389 0
DWIDTH 5 0
BBX 4 6 0 0
BITMAP
70
90
40
20
90
e0
ENDCHAR
STARTCHAR t
ENCODING 116
SWIDTH 278 0
DWIDTH 4 0
BBX 4 7 0 0
BITMAP
20
f0
40
40
80
a0
40
ENDCHAR
STARTCHAR u
ENCODING 117
SWIDTH 500 0
DWIDTH 6 0
BBX 6 6 0 0
BITMAP
c8
48
48
90
94
68
ENDCHAR
STARTCHAR v
ENCODING 118
SWIDTH 444 0
DWIDTH 6 0
BBX 5 6 0 0
BITMAP
c8
48
50
50
60
40
ENDCHAR
STARTCHAR w
ENCODING 119
SWIDTH 667 0
DWIDTH 9 0
BBX 8 6 0 0
BITMAP
c9
49
4a
5a
6c
48
ENDCHAR
STARTCHAR x
ENCODING 120
SWIDTH 444 0
DWIDTH 6 0
BBX 7 6 -1 0
BITMAP
64
28
10
28
ca
84
ENDCHAR
STARTCHAR y
ENCODING 121
SWIDTH 444 0
DWIDTH 6 0
BBX 6 9 -1 -3
BITMAP
64
24
24
28
18
10
10
a0
c0
ENDCHAR
STARTCHAR z
ENCODING 122
SWIDTH 389 0
DWIDTH 5 0
BBX 5 6 0 0
BITMAP
78
50
20
40
90
f0
ENDCHAR
STARTCHAR braceleft
ENCODING 123
SWIDTH 400 0
DWIDTH 5 0
BBX 5 12 0 -3
BITMAP
18
20
20
20
20
c0
40
40
40
80
80
60
ENDCHAR
STARTCHAR bar
ENCODING 124
SWIDTH 275 0
DWIDTH 4 0
BBX 4 12 -1 -3
BITMAP
10
10
10
20
20
20
40
40
40
80
80
80
ENDCHAR
STARTCHAR braceright
ENCODING 125
SWIDTH 400 0
DWIDTH 5 0
BBX 5 12 -1 -3
BITMAP
30
08
08
10
10
18
20
20
20
20
20
c0
ENDCHAR
STARTCHAR asciitilde
ENCODING 126
SWIDTH 541 0
DWIDTH 7 0
BBX 5 2 1 3
BITMAP
68
b0
ENDCHAR
STARTCHAR nobreakspace
ENCODING 160
SWIDTH 250 0
DWIDTH 3 0
BBX 1 1 0 0
BITMAP
00
ENDCHAR
STARTCHAR Aogonek
ENCODING 161
SWIDTH 611 0
DWIDTH 8 0
BBX 8 12 -1 -3
BITMAP
06
06
0a
12
12
3e
22
42
e7
10
24
38
ENDCHAR
STARTCHAR breve
ENCODING 162
SWIDTH 333 0
DWIDTH 4 0
BBX 4 3 1 7
BITMAP
90
90
60
ENDCHAR
STARTCHAR Lstroke
ENCODING 163
SWIDTH 556 0
DWIDTH 7 0
BBX 7 9 0 0
BITMAP
38
10
14
78
a0
20
40
42
fc
ENDCHAR
STARTCHAR currency
ENCODING 164
SWIDTH 500 0
DWIDTH 7 0
BBX 6 6 0 1
BITMAP
84
78
48
48
78
84
ENDCHAR
STARTCHAR Lcaron
ENCODING 165
SWIDTH 640 0
DWIDTH 8 0
BBX 8 10 0 0
BITMAP
01
39
12
10
20
20
20
40
42
fc
ENDCHAR
STARTCHAR Sacute
ENCODING 166
SWIDTH 500 0
DWIDTH 6 0
BBX 8 12 -1 0
BITMAP
04
08
00
1d
22
22
10
08
04
44
44
b8
ENDCHAR
STARTCHAR section
ENCODING 167
SWIDTH 500 0
DWIDTH 6 0
BBX 6 11 0 -2
BITMAP
18
24
24
70
58
48
68
38
90
90
60
ENDCHAR
STARTCHAR diaeresis
ENCODING 168
SWIDTH 333 0
DWIDTH 4 0
BBX 3 1 1 7
BITMAP
a0
ENDCHAR
STARTCHAR Scaron
ENCODING 169
SWIDTH 500 0
DWIDTH 6 0
BBX 8 12 -1 0
BITMAP
12
1c
00
1d
22
22
10
08
04
44
44
b8
ENDCHAR
STARTCHAR Scedilla
ENCODING 170
SWIDTH 500 0
DWIDTH 6 0
BBX 8 12 -1 -3
BITMAP
1d
22
22
10
08
04
44
44
b8
10
08
30
ENDCHAR
STARTCHAR Tcaron
ENCODING 171
SWIDTH 556 0
DWIDTH 7 0
BBX 8 12 0 0
BITMAP
24
38
00
7f
89
08
10
10
10
20
20
70
ENDCHAR
STARTCHAR Zacute
ENCODING 172
SWIDTH 556 0
DWIDTH 7 0
BBX 8 12 0 0
BITMAP
04
08
00
3f
22
04
08
10
20
40
84
fc
ENDCHAR
STARTCHAR hyphen
ENCODING 173
SWIDTH 333 0
DWIDTH 4 0
BBX 4 1 -1 3
BITMAP
f0
ENDCHAR
STARTCHAR Zcaron
ENCODING 174
SWIDTH 556 0
DWIDTH 7 0
BBX 8 12 0 0
BITMAP
12
1c
00
3f
22
04
08
10
20
40
84
fc
ENDCHAR
STARTCHAR Zabovedot
ENCODING 175
SWIDTH 556 0
DWIDTH 7 0
BBX 8 11 0 0
BITMAP
08
00
3f
22
04
08
10
20
40
84
fc
ENDCHAR
STARTCHAR degree
ENCODING 176
SWIDTH 400 0
DWIDTH 5 0
BBX 4 4 0 5
BITMAP
60
90
90
60
ENDCHAR
STARTCHAR aogonek
ENCODING 177
SWIDTH 500 0
DWIDTH 6 0
BBX 6 9 0 -3
BITMAP
34
48
88
90
94
68
20
48
70
ENDCHAR
STARTCHAR ogonek
ENCODING 178
SWIDTH 333 0
DWIDTH 4 0
BBX 4 3 0 -3
BITMAP
40
90
e0
ENDCHAR
STARTCHAR lstroke
ENCODING 179
SWIDTH 278 0
DWIDTH 3 0
BBX 5 9 0 0
BITMAP
60
20
28
70
c0
40
80
a0
40
ENDCHAR
STARTCHAR acute
ENCODING 180
SWIDTH 333 0
DWIDTH 4 0
BBX 2 2 2 7
BITMAP
40
80
ENDCHAR
STARTCHAR lcaron
ENCODING 181
SWIDTH 480 0
DWIDTH 6 0
BBX 6 10 0 0
BITMAP
04
64
28
20
40
40
40
80
a0
40
ENDCHAR
STARTCHAR sacute
ENCODING 182
SWIDTH 389 0
DWIDTH 5 0
BBX 4 9 0 0
BITMAP
20
40
00
70
90
40
20
90
e0
ENDCHAR
STARTCHAR caron
ENCODING 183
SWIDTH 333 0
DWIDTH 4 0
BBX 4 2 1 7
BITMAP
90
e0
ENDCHAR
STARTCHAR cedilla
ENCODING 184
SWIDTH 333 0
DWIDTH 4 0
BBX 3 3 0 -3
BITMAP
40
20
c0
ENDCHAR
STARTCHAR scaron
ENCODING 185
SWIDTH 389 0
DWIDTH 5 0
BBX 4 9 0 0
BITMAP
90
e0
00
70
90
40
20
90
e0
ENDCHAR
STARTCHAR scedilla
ENCODING 186
SWIDTH 389 0
DWIDTH 5 0
BBX 4 9 0 -3
BITMAP
70
90
40
20
90
e0
40
20
c0
ENDCHAR
STARTCHAR tcaron
ENCODING 187
SWIDTH 278 0
DWIDTH 4 0
BBX 4 10 0 0
BITMAP
20
20
40
20
f0
40
40
80
a0
40
ENDCHAR
STARTCHAR zacute
ENCODING 188
SWIDTH 389 0
DWIDTH 5 0
BBX 5 9 0 0
BITMAP
10
20
00
78
50
20
40
90
f0
ENDCHAR
STARTCHAR doubleacute
ENCODING 189
SWIDTH 333 0
DWIDTH 4 0
BBX 4 2 1 7
BITMAP
50
a0
ENDCHAR
STARTCHAR zcaron
ENCODING 190
SWIDTH 389 0
DWIDTH 5 0
BBX 5 9 0 0
BITMAP
48
70
00
78
50
20
40
90
f0
ENDCHAR
STARTCHAR zabovedot
ENCODING 191
SWIDTH 389 0
DWIDTH 5 0
BBX 5 8 0 0
BITMAP
20
00
78
50
20
40
90
f0
ENDCHAR
STARTCHAR Racute
ENCODING 192
SWIDTH 611 0
DWIDTH 8 0
BBX 8 12 -1 0
BITMAP
04
08
00
3e
11
11
22
3c
28
44
42
e3
ENDCHAR
STARTCHAR Aacute
ENCODING 193
SWIDTH 611 0
DWIDTH 8 0
BBX 8 12 -1 0
BITMAP
01
02
00
06
06
0a
12
12
3e
22
42
e7
ENDCHAR
STARTCHAR Acircumflex
ENCODING 194
SWIDTH 611 0
DWIDTH 8 0
BBX 8 12 -1 0
BITMAP
03
05
00
06
06
0a
12
12
3e
22
42
e7
ENDCHAR
STARTCHAR Abreve
ENCODING 195
SWIDTH 611 0
DWIDTH 8 0
BBX 8 13 -1 0
BITMAP
09
09
06
00
06
06
0a
12
12
3e
22
42
e7
ENDCHAR
STARTCHAR Adiaeresis
ENCODING 196
SWIDTH 611 0
DWIDTH 8 0
BBX 8 11 -1 0
BITMAP
05
00
06
06
0a
12
12
3e
22
42
e7
ENDCHAR
STARTCHAR Lacute
ENCODING 197
SWIDTH 556 0
DWIDTH 7 0
BBX 7 12 0 0
BITMAP
08
10
00
38
10
10
20
20
20
40
42
fc
ENDCHAR
STARTCHAR Cacute
ENCODING 198
SWIDTH 667 0
DWIDTH 7 0
BBX 8 12 0 0
BITMAP
04
08
00
1d
22
42
40
80
80
80
88
70
ENDCHAR
STARTCHAR Ccedilla
ENCODING 199
SWIDTH 667 0
DWIDTH 7 0
BBX 8 12 0 -3
BITMAP
1d
22
42
40
80
80
80
88
70
20
10
60
ENDCHAR
STARTCHAR Ccaron
ENCODING 200
SWIDTH 667 0
DWIDTH 7 0
BBX 8 12 0 0
BITMAP
12
1c
00
1d
22
42
40
80
80
80
88
70
ENDCHAR
STARTCHAR Eacute
ENCODING 201
SWIDTH 611 0
DWIDTH 8 0
BBX 8 12 0 0
BITMAP
02
04
00
3f
11
10
22
3c
24
40
42
fc
ENDCHAR
STARTCHAR Eogonek
ENCODING 202
SWIDTH 611 0
DWIDTH 8 0
BBX 8 12 0 -3
BITMAP
3f
11
10
22
3c
24
40
42
fc
10
24
38
ENDCHAR
STARTCHAR Ediaeresis
ENCODING 203
SWIDTH 611 0
DWIDTH 8 0
BBX 8 11 0 0
BITMAP
0a
00
3f
11
10
22
3c
24
40
42
fc
ENDCHAR
STARTCHAR Ecaron
ENCODING 204
SWIDTH 611 0
DWIDTH 8 0
BBX 8 12 0 0
BITMAP
12
1c
00
3f
11
10
22
3c
24
40
42
fc
ENDCHAR
STARTCHAR Iacute
ENCODING 205
SWIDTH 333 0
DWIDTH 5 0
BBX 5 12 0 0
BITMAP
08
10
00
38
10
10
20
20
20
40
40
e0
ENDCHAR
STARTCHAR Icircumflex
ENCODING 206
SWIDTH 333 0
DWIDTH 5 0
BBX 5 12 0 0
BITMAP
18
28
00
38
10
10
20
20
20
40
40
e0
ENDCHAR
STARTCHAR Dcaron
ENCODING 207
SWIDTH 722 0
DWIDTH 9 0
BBX 9 12 0 0
BITMAP
1200
1c00
0000
3e00
1100
1080
2080
2080
2100
4100
4600
f800
ENDCHAR
STARTCHAR Dstroke
ENCODING 208
SWIDTH 722 0
DWIDTH 9 0
BBX 9 9 0 0
BITMAP
3e00
1100
1080
2080
f880
2100
4100
4600
f800
ENDCHAR
STARTCHAR Nacute
ENCODING 209
SWIDTH 667 0
DWIDTH 9 0
BBX 10 12 -1 0
BITMAP
0200
0400
0000
31c0
1080
1080
2900
2900
2500
4600
4200
e200
ENDCHAR
STARTCHAR Ncaron
ENCODING 210
SWIDTH 667 0
DWIDTH 9 0
BBX 10 12 -1 0
BITMAP
0900
0e00
0000
31c0
1080
1080
2900
2900
2500
4600
4200
e200
ENDCHAR
STARTCHAR Oacute
ENCODING 211
SWIDTH 722 0
DWIDTH 7 0
BBX 7 12 0 0
BITMAP
02
04
00
1c
22
42
42
82
84
84
88
70
ENDCHAR
STARTCHAR Ocircumflex
ENCODING 212
SWIDTH 722 0
DWIDTH 7 0
BBX 7 12 0 0
BITMAP
06
0a
00
1c
22
42
42
82
84
84
88
70
ENDCHAR
STARTCHAR Odoubleacute
ENCODING 213
SWIDTH 722 0
DWIDTH 7 0
BBX 7 12 0 0
BITMAP
0a
14
00
1c
22
42
42
82
84
84
88
70
ENDCHAR
STARTCHAR Odiaeresis
ENCODING 214
SWIDTH 722 0
DWIDTH 7 0
BBX 7 11 0 0
BITMAP
0a
00
1c
22
42
42
82
84
84
88
70
ENDCHAR
STARTCHAR multiply
ENCODING 215
SWIDTH 675 0
DWIDTH 8 0
BBX 5 5 1 1
BITMAP
88
50
20
50
88
ENDCHAR
STARTCHAR Rcaron
ENCODING 216
SWIDTH 611 0
DWIDTH 8 0
BBX 8 12 -1 0
BITMAP
12
1c
00
3e
11
11
22
3c
28
44
42
e3
ENDCHAR
STARTCHAR Uring
ENCODING 217
SWIDTH 722 0
DWIDTH 8 0
BBX 9 13 0 0
BITMAP
0800
1400
0800
0000
7380
2100
2100
4200
4200
4200
8400
8400
7800
ENDCHAR
STARTCHAR Uacute
ENCODING 218
SWIDTH 722 0
DWIDTH 8 0
BBX 9 12 0 0
BITMAP
0200
0400
0000
7380
2100
2100
4200
4200
4200
8400
8400
7800
ENDCHAR
STARTCHAR Udoubleacute
ENCODING 219
SWIDTH 722 0
DWIDTH 8 0
BBX 9 12 0 0
BITMAP
0a00
1400
0000
7380
2100
2100
4200
4200
4200
8400
8400
7800
ENDCHAR
STARTCHAR Udiaeresis
ENCODING 220
SWIDTH 722 0
DWIDTH 8 0
BBX 9 11 0 0
BITMAP
0a00
0000
7380
2100
2100
4200
4200
4200
8400
8400
7800
ENDCHAR
STARTCHAR Yacute
ENCODING 221
SWIDTH 556 0
DWIDTH 7 0
BBX 8 12 0 0
BITMAP
04
08
00
77
22
24
28
30
20
20
40
e0
ENDCHAR
STARTCHAR Tcedilla
ENCODING 222
SWIDTH 556 0
DWIDTH 7 0
BBX 8 12 0 -3
BITMAP
7f
89
08
10
10
10
20
20
70
10
08
30
ENDCHAR
STARTCHAR ssharp
ENCODING 223
SWIDTH 500 0
DWIDTH 6 0
BBX 8 12 -2 -3
BITMAP
06
09
09
12
1c
12
12
3a
2c
20
a0
c0
ENDCHAR
STARTCHAR racute
ENCODING 224
SWIDTH 389 0
DWIDTH 4 0
BBX 4 9 0 0
BITMAP
20
40
00
b0
40
40
80
80
80
ENDCHAR
STARTCHAR aacute
ENCODING 225
SWIDTH 500 0
DWIDTH 7 0
BBX 6 9 0 0
BITMAP
08
10
00
34
48
88
90
94
68
ENDCHAR
STARTCHAR acircumflex
ENCODING 226
SWIDTH 500 0
DWIDTH 7 0
BBX 6 9 0 0
BITMAP
18
28
00
34
48
88
90
94
68
ENDCHAR
STARTCHAR abreve
ENCODING 227
SWIDTH 500 0
DWIDTH 6 0
BBX 6 10 0 0
BITMAP
24
24
18
00
34
48
88
90
94
68
ENDCHAR
STARTCHAR adiaeresis
ENCODING 228
SWIDTH 500 0
DWIDTH 7 0
BBX 6 8 0 0
BITMAP
28
00
34
48
88
90
94
68
ENDCHAR
STARTCHAR lacute
ENCODING 229
SWIDTH 278 0
DWIDTH 3 0
BBX 3 12 0 0
BITMAP
20
40
00
60
20
20
40
40
40
80
a0
40
ENDCHAR
STARTCHAR cacute
ENCODING 230
SWIDTH 444 0
DWIDTH 5 0
BBX 4 9 0 0
BITMAP
10
20
00
30
50
80
80
90
60
ENDCHAR
STARTCHAR ccedilla
ENCODING 231
SWIDTH 444 0
DWIDTH 5 0
BBX 4 9 0 -3
BITMAP
30
50
80
80
90
60
40
20
c0
ENDCHAR
STARTCHAR ccaron
ENCODING 232
SWIDTH 444 0
DWIDTH 5 0
BBX 5 9 0 0
BITMAP
48
70
00
30
50
80
80
90
60
ENDCHAR
STARTCHAR eacute
ENCODING 233
SWIDTH 444 0
DWIDTH 6 0
BBX 5 9 0 0
BITMAP
08
10
00
30
48
90
e0
88
70
ENDCHAR
STARTCHAR eogonek
ENCODING 234
SWIDTH 444 0
DWIDTH 6 0
BBX 5 9 0 -3
BITMAP
30
48
90
e0
88
70
20
48
70
ENDCHAR
STARTCHAR ediaeresis
ENCODING 235
SWIDTH 444 0
DWIDTH 6 0
BBX 5 8 0 0
BITMAP
28
00
30
48
90
e0
88
70
ENDCHAR
STARTCHAR ecaron
ENCODING 236
SWIDTH 444 0
DWIDTH 6 0
BBX 5 9 0 0
BITMAP
48
70
00
30
48
90
e0
88
70
ENDCHAR
STARTCHAR iacute
ENCODING 237
SWIDTH 278 0
DWIDTH 4 0
BBX 4 9 0 0
BITMAP
10
20
00
60
20
40
40
90
60
ENDCHAR
STARTCHAR icircumflex
ENCODING 238
SWIDTH 278 0
DWIDTH 4 0
BBX 4 9 0 0
BITMAP
30
50
00
60
20
40
40
90
60
ENDCHAR
STARTCHAR dcaron
ENCODING 239
SWIDTH 720 0
DWIDTH 9 0
BBX 9 10 0 0
BITMAP
0080
0c80
0500
0400
3800
4800
8800
9000
9400
6800
ENDCHAR
STARTCHAR dstroke
ENCODING 240
SWIDTH 640 0
DWIDTH 8 0
BBX 8 9 0 0
BITMAP
04
1f
04
38
48
88
90
94
68
ENDCHAR
STARTCHAR nacute
ENCODING 241
SWIDTH 500 0
DWIDTH 6 0
BBX 6 9 0 0
BITMAP
10
20
00
b0
48
48
90
94
98
ENDCHAR
STARTCHAR ncaron
ENCODING 242
SWIDTH 500 0
DWIDTH 6 0
BBX 6 9 0 0
BITMAP
48
70
00
b0
48
48
90
94
98
ENDCHAR
STARTCHAR oacute
ENCODING 243
SWIDTH 500 0
DWIDTH 6 0
BBX 5 9 0 0
BITMAP
08
10
00
30
48
88
88
90
60
ENDCHAR
STARTCHAR ocircumflex
ENCODING 244
SWIDTH 500 0
DWIDTH 6 0
BBX 5 9 0 0
BITMAP
18
28
00
30
48
88
88
90
60
ENDCHAR
STARTCHAR odoubleacute
ENCODING 245
SWIDTH 500 0
DWIDTH 6 0
BBX 5 9 0 0
BITMAP
28
50
00
30
48
88
88
90
60
ENDCHAR
STARTCHAR odiaeresis
ENCODING 246
SWIDTH 500 0
DWIDTH 6 0
BBX 5 8 0 0
BITMAP
28
00
30
48
88
88
90
60
ENDCHAR
STARTCHAR division
ENCODING 247
SWIDTH 675 0
DWIDTH 8 0
BBX 5 5 1 1
BITMAP
20
00
f8
00
20
ENDCHAR
STARTCHAR rcaron
ENCODING 248
SWIDTH 389 0
DWIDTH 4 0
BBX 4 9 0 0
BITMAP
90
e0
00
b0
40
40
80
80
80
ENDCHAR
STARTCHAR uring
ENCODING 249
SWIDTH 500 0
DWIDTH 6 0
BBX 6 10 0 0
BITMAP
20
50
20
00
c8
48
48
90
94
68
ENDCHAR
STARTCHAR uacute
ENCODING 250
SWIDTH 500 0
DWIDTH 6 0
BBX 6 9 0 0
BITMAP
08
10
00
c8
48
48
90
94
68
ENDCHAR
STARTCHAR udoubleacute
ENCODING 251
SWIDTH 500 0
DWIDTH 6 0
BBX 6 9 0 0
BITMAP
28
50
00
c8
48
48
90
94
68
ENDCHAR
STARTCHAR udiaeresis
ENCODING 252
SWIDTH 500 0
DWIDTH 6 0
BBX 6 8 0 0
BITMAP
28
00
c8
48
48
90
94
68
ENDCHAR
STARTCHAR yacute
ENCODING 253
SWIDTH 444 0
DWIDTH 6 0
BBX 6 12 -1 -3
BITMAP
04
08
00
64
24
24
28
18
10
10
a0
c0
ENDCHAR
STARTCHAR tcedilla
ENCODING 254
SWIDTH 278 0
DWIDTH 4 0
BBX 4 10 0 -3
BITMAP
20
f0
40
40
80
a0
40
40
20
c0
ENDCHAR
STARTCHAR abovedot
ENCODING 255
SWIDTH 333 0
DWIDTH 4 0
BBX 1 1 2 7
BITMAP
80
ENDCHAR
ENDFONT
